<?xml version="1.0" standalone="no"?>
<!DOCTYPE svg PUBLIC "-//W3C//DTD SVG 20010904//EN"
 "http://www.w3.org/TR/2001/REC-SVG-20010904/DTD/svg10.dtd">
<svg version="1.0" xmlns="http://www.w3.org/2000/svg"
 width="807.000000pt" height="807.000000pt" viewBox="0 0 807.000000 807.000000"
 preserveAspectRatio="xMidYMid meet">
<metadata>
Created by potrace 1.11, written by Peter Selinger 2001-2013
</metadata>
<g transform="translate(0.000000,807.000000) scale(0.100000,-0.100000)"
fill="#000000" stroke="none">
<path d="M2773 7773 c-10 -4 -13 -101 -13 -438 0 -404 1 -435 18 -443 20 -10
202 -9 219 1 15 10 16 856 1 874 -8 10 -40 13 -112 12 -56 -1 -107 -4 -113 -6z"/>
<path d="M3390 7765 c-10 -11 -13 -114 -13 -437 0 -376 2 -422 16 -433 24 -17
216 -13 228 6 14 23 11 855 -4 867 -7 6 -58 11 -113 11 -79 1 -104 -2 -114
-14z"/>
<path d="M3942 7763 c-10 -22 -10 -859 1 -869 13 -13 207 -11 224 1 14 11 16
63 16 439 0 359 -2 429 -14 437 -8 5 -60 9 -116 9 -88 0 -104 -3 -111 -17z"/>
<path d="M4563 7767 c-13 -21 -10 -859 3 -872 12 -12 218 -14 230 -2 4 4 7
201 7 438 0 340 -3 433 -13 439 -20 13 -219 10 -227 -3z"/>
<path d="M5173 7768 c-11 -16 -11 -863 0 -875 14 -13 217 -10 229 4 6 8 10
159 10 439 0 348 -2 428 -13 435 -23 14 -215 11 -226 -3z"/>
<path d="M5788 7769 c-16 -9 -17 -45 -17 -439 0 -318 3 -432 12 -437 17 -10
199 -11 220 -1 16 8 17 39 17 442 0 386 -2 435 -16 440 -26 10 -198 6 -216 -5z"/>
<path d="M2587 6634 c-1 -1 -24 -4 -52 -8 -92 -11 -237 -60 -276 -93 -8 -7
-19 -13 -23 -13 -16 0 -115 -82 -169 -140 -93 -101 -150 -201 -189 -337 l-22
-78 -2 -1835 c-3 -1976 -4 -1911 49 -2050 34 -89 54 -126 101 -190 85 -117
201 -208 336 -267 153 -65 27 -62 2075 -60 l1860 2 73 23 c298 92 522 340 569
631 5 25 8 879 8 1896 l0 1850 -23 81 c-45 156 -135 297 -256 402 -100 86
-265 162 -389 178 -41 6 -3664 13 -3670 8z m3688 -278 c105 -32 174 -74 253
-156 53 -55 117 -185 131 -265 8 -41 11 -616 11 -1850 0 -1584 -2 -1797 -16
-1850 -49 -190 -174 -325 -357 -387 l-82 -27 -1814 -1 c-1635 0 -1821 1 -1880
16 -158 38 -298 158 -364 309 -46 104 -45 51 -42 1973 1 999 4 1824 7 1832 3
8 8 29 13 45 45 171 220 331 401 368 47 9 466 12 1870 11 1707 0 1812 -1 1869
-18z"/>
<path d="M2859 5926 c-118 -41 -180 -160 -145 -279 38 -129 183 -195 306 -140
214 96 154 414 -80 428 -25 2 -61 -2 -81 -9z"/>
<path d="M3371 5323 c-50 -17 -82 -44 -105 -89 -21 -39 -21 -49 -21 -1064 -1
-572 3 -1041 8 -1062 11 -44 49 -89 96 -113 32 -16 102 -17 1055 -17 1102 0
1057 -2 1113 51 59 56 56 -10 55 1126 0 690 -3 1048 -10 1065 -15 36 -52 74
-92 95 -32 17 -96 18 -1049 19 -765 1 -1024 -2 -1050 -11z m1934 -252 c7 -1
10 -313 10 -916 l0 -915 -30 0 c-43 -1 -1736 -1 -1761 0 l-21 0 0 913 0 912
25 5 c20 4 1725 4 1777 1z"/>
<path d="M811 5736 c-9 -11 -12 -200 -3 -223 6 -17 637 -19 648 -2 9 15 9 218
0 227 -13 12 -635 11 -645 -2z"/>
<path d="M7180 5735 c-7 -8 -10 -56 -8 -121 l3 -109 434 -3 c261 -1 439 2 444
7 15 15 12 222 -3 231 -6 4 -203 7 -436 7 -329 0 -426 -2 -434 -12z"/>
<path d="M7181 5126 c-12 -14 -14 -196 -4 -223 7 -17 868 -19 878 -2 10 15 12
196 3 219 -7 19 -23 19 -437 19 -351 0 -431 -2 -440 -13z"/>
<path d="M705 5120 l-60 -5 0 -99 c0 -60 4 -103 11 -110 12 -13 787 -16 800
-4 8 9 11 196 3 210 -7 10 -644 17 -754 8z"/>
<path d="M7178 4518 c-10 -27 -8 -211 3 -224 14 -17 865 -19 875 -2 9 14 8
213 -1 227 -10 17 -871 15 -877 -1z"/>
<path d="M495 4508 c-10 -6 -13 -34 -13 -112 0 -57 4 -110 8 -117 10 -16 935
-20 957 -3 21 15 24 211 4 227 -16 14 -932 18 -956 5z"/>
<path d="M334 3902 c-13 -8 -17 -211 -4 -231 6 -11 118 -13 560 -13 357 0 555
3 562 10 11 11 15 212 4 230 -5 9 -147 12 -559 12 -304 0 -557 -4 -563 -8z"/>
<path d="M7181 3897 c-15 -15 -14 -210 1 -225 17 -17 864 -17 874 0 9 14 9
213 0 226 -8 14 -862 12 -875 -1z"/>
<path d="M7197 3351 c-23 -7 -27 -26 -27 -128 0 -71 4 -104 13 -110 16 -10
867 -11 874 0 10 17 6 218 -5 229 -8 8 -130 11 -427 12 -228 1 -421 -1 -428
-3z"/>
<path d="M169 3339 c-13 -8 -18 -207 -5 -227 10 -16 1282 -17 1291 -1 9 13 10
212 2 226 -8 12 -1268 15 -1288 2z"/>
<path d="M7190 2728 c-18 -7 -20 -17 -20 -117 0 -95 2 -111 18 -119 20 -10
857 -10 868 0 8 9 8 228 -1 236 -9 9 -841 9 -865 0z"/>
<path d="M65 2720 l-60 -5 -3 -102 c-2 -90 -1 -103 15 -111 21 -10 1428 -10
1438 0 12 11 10 197 -2 209 -11 11 -1264 19 -1388 9z"/>
<path d="M2799 1188 c-11 -4 -19 -17 -20 -30 -4 -137 0 -838 5 -847 10 -16
222 -15 233 2 4 6 8 202 8 435 0 329 -2 426 -12 434 -15 12 -184 17 -214 6z"/>
<path d="M3434 1192 c-10 -2 -23 -8 -29 -13 -12 -12 -15 -837 -3 -861 8 -16
24 -18 118 -18 72 0 111 4 116 12 12 19 11 849 -2 866 -7 10 -34 14 -95 16
-47 0 -94 -1 -105 -2z"/>
<path d="M3998 1192 c-30 -3 -39 -8 -43 -25 -2 -12 -4 -211 -2 -442 l2 -420
120 0 120 0 3 434 c1 244 -2 439 -7 444 -9 9 -127 14 -193 9z"/>
<path d="M4605 1191 c-11 -2 -23 -8 -27 -14 -9 -14 -8 -851 1 -866 5 -8 41
-11 122 -9 l114 3 3 434 c1 246 -2 439 -7 444 -9 9 -169 15 -206 8z"/>
<path d="M5208 1190 l-23 -6 -3 -419 c-1 -231 0 -430 3 -442 5 -22 9 -23 119
-23 95 0 115 3 120 16 3 9 6 207 6 440 0 369 -2 425 -15 430 -20 8 -177 11
-207 4z"/>
<path d="M5818 1190 l-23 -6 0 -439 0 -440 117 -3 c105 -2 117 -1 121 15 8 28
5 850 -3 863 -8 12 -170 20 -212 10z"/>
</g>
</svg>
